#!OML:ASF I:\Actors\actors\Patient Classification 2\Patient 1\Session 1\actor1.ASF
:FULLY-SPECIFIED
:DEGREES
584
root -0.663611 17.0216 5.00183 14.9029 2.22568 -0.927032
lowerback 25.5369 -1.83539 12.2274
upperback -0.922626 2.28641 6.44307
thorax -14.5759 0.384738 -0.435695
lowerneck -11.4225 0.33078 5.93153
upperneck 17.9467 -1.43737 3.74355
head 7.42199 0.0547931 0.103504
rclavicle 1.90833e-014 1.22451e-013
rhumerus -29.1218 12.9376 -6.95181
rradius 98.8978
rwrist -25.2141
rhand 45.4769 -46.9848
rfingers 7.12502
rthumb 66.7485 -50.9521
lclavicle 1.90833e-014 1.22451e-013
lhumerus -33.1357 26.1201 0.113544
lradius 85.438
lwrist 23.6733
lhand -29.674 -57.1308
lfingers 7.12502
lthumb -3.00262 -27.1722
rfemur -39.9511 -17.5996 17.302
rtibia 57.4244
rfoot -25.6057 10.0298
rtoes -18.8901
lfemur -46.6331 15.5856 -15.7833
ltibia 61.742
lfoot -24.9373 -10.0101
ltoes -56.5045
585
root -0.68395 17.0221 5.00505 14.9832 1.98214 -0.871159
lowerback 25.3874 -2.02659 12.1609
upperback -0.875691 1.93054 6.10606
thorax -14.4606 0.224677 -0.643359
lowerneck -11.1647 0.607669 6.28043
upperneck 17.8767 -1.11891 3.8247
head 7.35903 0.229815 0.103059
rclavicle -3.33958e-014 -4.77083e-015
rhumerus -28.1656 12.0839 -6.21555
rradius 99.52
rwrist -23.9673
rhand 45.9127 -45.7744
rfingers 7.12502
rthumb 67.0756 -49.0659
lclavicle -3.33958e-014 -4.77083e-015
lhumerus -33.7302 25.6523 0.608234
lradius 83.917
lwrist 23.1701
lhand -29.057 -56.3322
lfingers 7.12502
lthumb -2.40676 -26.366
rfemur -40.1119 -17.3822 17.2885
rtibia 57.5302
rfoot -25.6368 10.0648
rtoes -18.9383
lfemur -46.6381 15.8338 -15.8331
ltibia 61.6895
lfoot -24.9114 -10.0573
ltoes -56.4684
586
root -0.705954 17.0219 5.00782 15.0441 1.76403 -0.839923
lowerback 25.2851 -2.23085 12.0697
upperback -0.79508 1.55991 5.79688
thorax -14.3373 0.0620412 -0.802957
lowerneck -11.0411 0.953601 6.63739
upperneck 17.8967 -0.73203 3.948
head 7.35214 0.446369 0.121773
rclavicle 4.77083e-015 -3.81667e-014
rhumerus -26.1856 11.6572 -4.51963
rradius 99.4523
rwrist -23.6342
rhand 45.3074 -43.4884
rfingers 7.12502
rthumb 66.6205 -47.7131
lclavicle 4.77083e-015 -3.81667e-014
lhumerus -34.332 25.2641 1.03851
lradius 82.3591
lwrist 22.639
lhand -28.781 -55.1604
lfingers 7.12502
lthumb -2.14022 -25.1914
rfemur -40.2584 -17.1721 17.3119
rtibia 57.6296
rfoot -25.668 10.0201
rtoes -19.3077
lfemur -46.6293 16.0944 -15.8428
ltibia 61.6307
lfoot -24.8569 -10.1707
ltoes -56.4019
587
root -0.727592 17.023 5.01076 15.0499 1.56559 -0.831048
lowerback 25.2242 -2.441 11.9968
upperback -0.70257 1.1981 5.51345
thorax -14.2237 -0.0972406 -0.946872
lowerneck -11.0315 1.2811 6.97301
upperneck 18.1207 -0.384056 4.04663
head 7.43294 0.649959 0.133862
rclavicle -2.70347e-014 4.13472e-014
rhumerus -23.0576 11.5349 -1.74539
rradius 98.6754
rwrist -24.8872
rhand 43.2964 -41.8501
rfingers 7.12502
rthumb 65.0649 -48.9186
lclavicle -2.70347e-014 4.13472e-014
lhumerus -34.9012 24.8607 1.52638
lradius 80.8335
lwrist 22.2786
lhand -28.4951 -53.8419
lfingers 7.12502
lthumb -1.8641 -23.8703
rfemur -40.3253 -16.9236 17.3323
rtibia 57.7156
rfoot -25.6802 9.95905
rtoes -19.5192
lfemur -46.5511 16.3556 -15.8111
ltibia 61.5623
lfoot -24.8317 -10.3017
ltoes -56.3846
588
root -0.747307 17.0257 5.01392 15.0274 1.39366 -0.786209
lowerback 25.1928 -2.66856 11.9053
upperback -0.635001 0.822229 5.26196
thorax -14.1603 -0.263186 -1.0403
lowerneck -11.2198 1.52066 7.14311
upperneck 18.5997 -0.177218 4.22995
head 7.63182 0.795777 0.190729
rclavicle -1.11319e-014 -2.38542e-014
rhumerus -20.9785 10.9008 -0.0108343
rradius 98.6965
rwrist -25.2769
rhand 43.1082 -42.248
rfingers 7.12502
rthumb 64.9162 -49.5637
lclavicle -1.11319e-014 -2.38542e-014
lhumerus -35.561 24.431 2.05023
lradius 79.3607
lwrist 21.9669
lhand -27.9549 -52.5271
lfingers 7.12502
lthumb -1.34231 -22.5516
rfemur -40.3443 -16.6867 17.2921
rtibia 57.7886
rfoot -25.6759 9.93166
rtoes -19.3713
lfemur -46.4346 16.5736 -15.8137
ltibia 61.4836
lfoot -24.7673 -10.3522
ltoes -56.3326
589
root -0.767033 17.029 5.01755 14.9953 1.24103 -0.728214
lowerback 25.1436 -2.9051 11.7601
upperback -0.206681 0.404371 5.02754
thorax -14.4622 -0.42197 -1.02016
lowerneck -11.4482 1.73298 7.18263
upperneck 19.1262 -0.0232667 4.56636
head 7.85411 0.924668 0.316559
rclavicle -3.18055e-014 2.54444e-014
rhumerus -18.8684 10.0731 1.81814
rradius 98.8256
rwrist -25.6872
rhand 45.0888 -44.0583
rfingers 7.12502
rthumb 66.4545 -48.611
lclavicle -3.18055e-014 2.54444e-014
lhumerus -36.3405 24.0402 2.50804
lradius 77.9264
lwrist 21.5975
lhand -27.3175 -50.8884
lfingers 7.12502
lthumb -0.726786 -20.9099
rfemur -40.3489 -16.4922 17.2482
rtibia 57.8412
rfoot -25.6888 9.86222
rtoes -19.3451
lfemur -46.3099 16.805 -15.8334
ltibia 61.3925
lfoot -24.656 -10.4173
ltoes -56.2995
